<?xml version="1.0" encoding="utf-8"?>
<!-- Svg Vector Icons : http://www.onlinewebfonts.com/icon -->
<!DOCTYPE svg PUBLIC "-//W3C//DTD SVG 1.1//EN" "http://www.w3.org/Graphics/SVG/1.1/DTD/svg11.dtd">
<svg version="1.1" xmlns="http://www.w3.org/2000/svg" xmlns:xlink="http://www.w3.org/1999/xlink" x="0px" y="0px" viewBox="0 0 1000 1000" enable-background="new 0 0 1000 1000" xml:space="preserve">
<metadata> Svg Vector Icons : http://www.onlinewebfonts.com/icon </metadata>
<g><path d="M108.7,70.5c57.9,7.2,117.8,6.9,179.8-1.6c62.4-8.6,126.8-25.6,193.3-51.7L500,10l18.3,7.2c66.5,26.2,130.8,43.1,193.2,51.7c62.1,8.5,121.9,8.8,179.9,1.6l61.5-7.7l-0.8,69.1c-3.3,293.7-50.7,489-127.1,619.7C744.9,889,635.6,954.8,512.4,986.8L500,990l-12.4-3.2c-123.1-32-232.5-97.8-312.6-235.1C98.7,620.9,51.3,425.7,48,132l-0.8-69.1L108.7,70.5L108.7,70.5z M500,508.4h301.7c21-84,34.6-186.4,39.2-311.1c-46.7,2-94.3-0.1-142.7-6.8c-64.1-8.8-130.2-25.5-198.2-50.9V508.4L500,508.4z M500,864.2V508.4H198.3c17.9,71.4,41,129.6,68.6,176.8C325.9,786.5,407.4,837.8,500,864.2z"/></g>
</svg>