<?xml version="1.0" encoding="utf-8"?>
<!-- Svg Vector Icons : http://www.onlinewebfonts.com/icon -->
<!DOCTYPE svg PUBLIC "-//W3C//DTD SVG 1.1//EN" "http://www.w3.org/Graphics/SVG/1.1/DTD/svg11.dtd">
<svg version="1.1" xmlns="http://www.w3.org/2000/svg" xmlns:xlink="http://www.w3.org/1999/xlink" x="0px" y="0px" viewBox="0 0 1000 1000" enable-background="new 0 0 1000 1000" xml:space="preserve">
<metadata> Svg Vector Icons : http://www.onlinewebfonts.com/icon </metadata>
<g><g transform="translate(0.000000,460.000000) scale(0.100000,-0.100000)"><path d="M929.6,3977.7c-195.4-63.2-354.4-201.2-444.5-392.8l-49.8-107.3l-5.7-638l-5.8-636.1l-70.9-36.4c-38.3-21.1-97.7-65.1-132.2-101.6C100,1941,100,1939.1,100,1078.9c0-500.1,7.7-808.5,21.1-856.4c23-86.2,180.1-252.9,254.8-272.1l49.8-11.5v-341c0-339.1,0-341-44.1-352.5c-69-17.2-197.3-137.9-241.4-228c-38.3-80.5-40.2-111.1-40.2-881.3c0-881.3,0-881.3,120.7-1005.9c34.5-36.4,93.9-80.5,132.2-101.6l70.9-36.4l5.8-636.1l5.7-638l51.7-109.2c70.9-151.3,187.8-272.1,339.1-346.8l126.5-61.3h4215.1h4215l109.2,51.7c145.6,67.1,283.6,199.2,352.5,335.3l55.6,111.1v3898.9v3898.9l-53.6,105.4c-70.9,137.9-201.2,270.1-337.2,337.2l-107.3,55.6l-4195.9,3.8C1772.6,4000.7,994.7,3996.8,929.6,3977.7z M9447.9,3623.2c34.5-24.9,80.4-80.5,99.6-124.5c34.5-76.6,36.4-214.6,36.4-3900.8v-3824.2l-42.1-84.3c-32.6-63.2-67.1-97.7-130.3-130.3l-84.3-42.1H5167.6H1008.1l-84.3,44.1c-63.2,30.7-97.7,65.1-130.3,128.4c-42.2,84.3-42.2,95.8-38.3,689.7l5.7,603.5h239.5H1240l5.7-482.8l3.8-484.7h3918.1h3918.1v3582.8v3582.8H5167.6H1249.6l-3.8-482.8l-5.7-484.7h-239.5H761l-5.7,603.5c-3.8,593.9-3.8,605.4,38.3,689.7c32.6,63.2,67.1,97.7,130.3,130.3l86.2,42.2l4186.3-3.8l4186.3-5.7L9447.9,3623.2z M8760-402.1v-3257.1H5167.6H1575.3v325.7v325.7l46,19.2c76.6,28.7,206.9,157.1,243.3,239.5c32.6,70.9,36.4,143.7,36.4,877.5c0,643.7-5.7,812.4-26.8,864.1c-38.3,93.9-157.1,216.5-233.7,245.3l-65.1,23v339.1c0,337.2,0,339.1,44.1,350.6c69,17.2,197.3,137.9,241.4,228c38.3,80.5,40.2,111.1,40.2,887.1c0,735.7-3.8,808.5-36.4,879.4c-40.2,90.1-136,187.8-224.2,229.9l-65.1,30.7v323.8v325.7h3592.4H8760V-402.1z M1529.3,1837.6c34.5-38.3,36.4-80.5,36.4-777.9V322.1l-46-36.4c-42.2-34.5-76.6-36.4-565.2-32.6l-519.2,5.7l-5.7,785.5c-1.9,431.1,0,797,5.7,808.5c5.7,19.2,130.3,24.9,532.6,24.9C1477.6,1877.8,1492.9,1875.9,1529.3,1837.6z M1249.6-402.1v-325.7h-249.1H751.4v325.7v325.7h249.1h249.1V-402.1z M1519.7-1090l46-36.4V-1864c0-699.3-1.9-739.6-36.4-777.9c-36.4-40.2-47.9-40.2-565.2-36.4l-528.8,5.7l-5.7,785.5c-1.9,431.1,0,797,5.7,808.5c5.7,19.2,128.4,24.9,525,24.9C1439.2-1053.6,1477.6-1055.5,1519.7-1090z"/><path d="M7754.1,1707.3c-170.5-42.2-358.3-208.8-423.4-375.5c-34.5-92-36.4-164.8-36.4-1733.9c0-1866.1-11.5-1739.7,166.7-1927.4c147.5-157.1,237.6-187.8,572.9-195.4l277.8-7.7l61.3,51.7c78.6,65.1,84.3,160.9,13.4,229.9c-44.1,46-57.5,47.9-291.2,47.9c-281.6,0-371.7,19.2-427.2,90.1c-38.3,47.9-38.3,65.1-38.3,1709c0,1504,3.8,1664.9,30.6,1705.2c55.6,78.6,137.9,97.7,419.6,97.7c251,0,262.5,1.9,306.6,47.9c70.9,69,65.1,164.8-11.5,228c-57.5,47.9-65.1,49.8-310.4,47.9C7924.7,1720.7,7786.7,1715,7754.1,1707.3z"/><path d="M4248,1538.7c-743.4-116.9-1358.4-639.9-1599.8-1360.3c-291.2-873.7,126.5-1866.1,973.3-2310.6c521.1-272.1,1097.8-297,1643.9-69c216.5,90,582.5,344.9,684,477.1c203.1,264.4,251,333.4,318.1,469.4c262.5,534.5,272,1097.8,30.6,1647.7c-93.9,212.7-333.4,538.4-479,655.3c-433,346.8-783.6,484.7-1254.9,494.3C4422.3,1546.4,4280.6,1544.4,4248,1538.7z M4353.4,1034.8c0-180.1,3.8-197.3,47.9-239.5c57.5-59.4,159-63.2,222.3-11.5c42.1,34.5,46,53.7,51.7,239.5c3.8,111.1,9.6,203.1,11.5,203.1c40.2,0,262.5-49.8,356.4-80.5c159-49.8,247.2-93.9,396.6-193.5l118.8-78.6l-141.8-147.5c-151.4-155.2-164.8-189.7-115-283.5c30.6-61.3,63.2-78.6,147.5-78.6c46,0,86.2,28.7,199.2,138c162.9,157.1,139.9,162.9,275.9-61.3c84.3-139.9,182-417.7,203.1-569l13.4-101.5h-157.1c-252.9,0-356.4-70.9-316.1-214.6c26.8-93.9,113-130.3,312.3-130.3h160.9l-13.4-99.6c-21.1-153.3-116.9-425.3-203.1-569c-136-226.1-113-220.3-275.9-63.2c-113,109.2-153.3,137.9-199.2,137.9c-84.3,0-116.9-17.3-147.5-78.6c-49.8-93.9-36.4-128.4,115-283.6l141.8-147.5l-118.8-78.5c-149.4-99.6-237.6-143.7-396.6-193.5c-93.9-30.7-316.1-80.5-356.4-80.5c-1.9,0-7.7,92-11.5,203.1c-5.7,185.8-9.6,205-51.7,239.5c-63.2,51.7-164.8,47.9-222.3-11.5c-44.1-42.2-47.9-59.4-47.9-239.5c0-105.4-1.9-191.6-5.7-191.6c-3.8,0-57.5,9.6-120.7,21.1c-233.7,40.2-454.1,128.4-655.2,262.5l-103.5,67.1l124.5,126.4c69,69,134.1,145.6,145.6,170.5c47.9,90-38.3,214.6-149.4,214.6c-59.4,0-86.2-19.2-208.8-137.9l-139.9-139.9l-36.4,47.9c-136,180.1-237.6,410-287.4,651.4l-32.6,162.9l183.9,9.6c206.9,11.5,254.8,30.6,289.3,115c19.2,46,19.2,69,0,114.9c-34.5,84.3-82.4,103.5-289.3,115l-183.9,9.6l32.6,162.9c49.8,241.4,151.4,471.3,287.4,651.4l36.4,47.9l139.9-137.9c122.6-120.7,149.4-139.9,208.8-139.9c111.1,0,197.3,124.5,149.4,214.6c-11.5,24.9-76.6,101.5-145.6,170.5l-124.5,126.5l109.2,70.9c164.8,111.1,383.2,205,565.2,243.3c90.1,17.2,174.4,34.5,187.8,34.5C4347.6,1226.4,4353.4,1176.6,4353.4,1034.8z"/><path d="M4391.7,398.7c-291.2-46-574.8-298.9-659.1-588.2c-84.3-287.4,3.8-574.8,243.3-800.9c312.3-295.1,756.8-293.1,1080.6,1.9c120.7,109.2,187.8,216.5,237.6,377.4C5460.8-76.4,4955,488.8,4391.7,398.7z M4727,50C4884.1-17,4985.6-166.5,4999-354.2c19.2-218.4-74.7-396.6-252.9-484.7c-113-57.5-321.9-65.1-431.1-19.2c-229.9,97.7-342.9,369.8-264.4,630.3c24.9,88.1,130.3,216.5,208.8,256.7C4387.9,96,4592.9,105.6,4727,50z"/><path d="M8005.1,1186.2l-49.8-38.3v-1550v-1550l49.8-38.3c67.1-53.6,147.5-49.8,212.7,5.7l53.6,46v1536.6v1536.6l-53.6,46C8152.7,1236,8072.2,1239.8,8005.1,1186.2z"/></g></g>
</svg>